<svg width="20" height="20" viewBox="0 0 20 20" fill="none" xmlns="http://www.w3.org/2000/svg">
<path d="M17.0833 8.49167H14.6749C12.6999 8.49167 11.0916 6.88334 11.0916 4.90834V2.50001C11.0916 2.04167 10.7166 1.66667 10.2583 1.66667H6.72492C4.15825 1.66667 2.08325 3.33334 2.08325 6.30834V13.6917C2.08325 16.6667 4.15825 18.3333 6.72492 18.3333H13.2749C15.8416 18.3333 17.9166 16.6667 17.9166 13.6917V9.32501C17.9166 8.86667 17.5416 8.49167 17.0833 8.49167ZM9.60825 11.275C9.48325 11.4 9.32492 11.4583 9.16658 11.4583C9.00825 11.4583 8.84992 11.4 8.72492 11.275L8.12492 10.675V14.1667C8.12492 14.5083 7.84159 14.7917 7.49992 14.7917C7.15825 14.7917 6.87492 14.5083 6.87492 14.1667V10.675L6.27492 11.275C6.03325 11.5167 5.63325 11.5167 5.39159 11.275C5.14992 11.0333 5.14992 10.6333 5.39159 10.3917L7.05825 8.72501C7.11659 8.67501 7.17492 8.63334 7.24158 8.60001C7.25825 8.59167 7.28325 8.58334 7.29992 8.57501C7.34992 8.55834 7.39992 8.55001 7.45825 8.54167C7.48325 8.54167 7.49992 8.54167 7.52492 8.54167C7.59159 8.54167 7.65825 8.55834 7.72492 8.58334C7.73325 8.58334 7.73325 8.58334 7.74159 8.58334C7.80825 8.60834 7.87492 8.65834 7.92492 8.70834C7.93325 8.71667 7.94159 8.71667 7.94159 8.72501L9.60825 10.3917C9.84992 10.6333 9.84992 11.0333 9.60825 11.275Z" fill="#778188"/>
<path d="M14.5251 7.34167C15.3167 7.35 16.4167 7.35 17.3584 7.35C17.8334 7.35 18.0834 6.79167 17.7501 6.45834C16.5501 5.25 14.4001 3.075 13.1667 1.84167C12.8251 1.5 12.2334 1.73334 12.2334 2.20834V5.11667C12.2334 6.33334 13.2667 7.34167 14.5251 7.34167Z" fill="#778188"/>
</svg>
