<svg width="20" height="20" viewBox="0 0 20 20" fill="none" xmlns="http://www.w3.org/2000/svg">
<path d="M2.72483 10C2.0665 9.20833 1.6665 8.19167 1.6665 7.08333C1.6665 4.56667 3.72484 2.5 6.24984 2.5H10.4165C12.9332 2.5 14.9998 4.56667 14.9998 7.08333C14.9998 9.6 12.9415 11.6667 10.4165 11.6667H8.33317" stroke="#8A8B8C" stroke-width="1.5" stroke-linecap="round" stroke-linejoin="round"/>
<path d="M9.98334 17.5H9.58333C7.06667 17.5 5 15.4333 5 12.9167C5 10.4 7.05833 8.33333 9.58333 8.33333H11.6667" stroke="#8A8B8C" stroke-width="1.5" stroke-linecap="round" stroke-linejoin="round"/>
<path d="M17.275 10C17.9333 10.7917 18.3333 11.8083 18.3333 12.9167C18.3333 15.4333 16.275 17.5 13.75 17.5" stroke="#292D32" stroke-width="1.5" stroke-linecap="round" stroke-linejoin="round"/>
</svg>
