<svg width="16" height="16" viewBox="0 0 16 16" fill="none" xmlns="http://www.w3.org/2000/svg">
<path d="M5.5535 8.76891L5.55344 8.76896L5.55904 8.77584C5.90185 9.19656 6.38806 9.5328 6.95814 9.47801C7.5179 9.43112 7.94553 9.03667 8.21673 8.5501L8.21731 8.54905L9.47731 6.27572L9.47751 6.27537C9.94785 5.42513 10.4941 5.11886 10.9822 5.13941C11.4598 5.16607 11.9725 5.52715 12.3607 6.4242C12.3608 6.42451 12.3609 6.42482 12.3611 6.42512L14.447 11.2968L14.4473 11.2974C14.5366 11.5054 14.595 11.7215 14.6231 11.9399C14.5931 11.7293 14.5343 11.5198 14.4459 11.3157C14.4458 11.3153 14.4456 11.3149 14.4454 11.3145L12.3606 6.44552C12.3604 6.4451 12.3603 6.44469 12.3601 6.44428C12.2171 6.10601 12.0356 5.8072 11.8189 5.58274C11.6072 5.36349 11.322 5.17613 10.9789 5.16064C10.641 5.14135 10.3394 5.30834 10.1145 5.49691C9.87729 5.69587 9.65989 5.97195 9.47795 6.29414L9.476 6.29762L8.21664 8.5698C8.21654 8.56998 8.21644 8.57016 8.21634 8.57034C7.89327 9.14931 7.4191 9.45887 6.95724 9.50182C6.49472 9.53826 5.97473 9.31699 5.55861 8.79623L5.41517 8.61366C5.08038 8.17647 4.63001 7.86667 4.10666 7.86667C4.10551 7.86667 4.10404 7.86666 4.10229 7.86665C4.0817 7.8665 4.02087 7.86606 3.94935 7.87888C3.38682 7.94764 2.97303 8.38355 2.72083 8.88032L2.72081 8.88032L2.71919 8.88358L1.57311 11.1824C1.53619 11.2555 1.50329 11.3299 1.47437 11.4053C1.5036 11.328 1.53691 11.2514 1.57433 11.176C1.5744 11.1759 1.57446 11.1758 1.57452 11.1756L2.72054 8.87694C2.72059 8.87683 2.72065 8.87672 2.72071 8.87661C3.03758 8.24308 3.50919 7.91437 3.97413 7.86373C4.43613 7.81341 4.96707 8.03652 5.40865 8.58456L5.5535 8.76891Z" fill="#292D32" stroke="white"/>
<path d="M4.64673 1.33333C3.5461 1.33333 2.65198 2.22423 2.64675 3.32364C2.65199 2.22527 3.54715 1.33333 4.64673 1.33333ZM4.64673 1.33333C5.75059 1.33333 6.64673 2.22947 6.64673 3.33333M4.64673 1.33333C5.74954 1.33333 6.64673 2.23052 6.64673 3.33333M6.64673 3.33333C6.64673 4.43719 5.75059 5.33333 4.64673 5.33333C5.74954 5.33333 6.64673 4.43614 6.64673 3.33333Z" fill="#292D32" stroke="white"/>
</svg>
